<svg width="36" height="42" viewBox="0 0 36 42" fill="none" xmlns="http://www.w3.org/2000/svg">
<path fill-rule="evenodd" clip-rule="evenodd" d="M5.80281 21C5.80281 14.3726 11.251 9 17.9718 9C21.2323 9 24.1932 10.2645 26.3779 12.3232C30.3856 10.3845 33.2723 9.60263 33.8823 10.4875C34.4948 11.3761 32.6776 13.7517 29.3481 16.7308C29.4833 17.0809 29.6024 17.4389 29.7044 17.8038C29.5746 17.4621 29.4284 17.1284 29.2668 16.8034C26.8298 18.9752 23.5982 21.462 19.924 23.9248C16.6178 26.141 13.4252 28.0215 10.6734 29.4219C12.6468 31.5082 15.4154 32.8536 18.5031 32.9888C18.3269 32.9962 18.1498 33 17.9718 33C14.8144 33 11.9379 31.8142 9.77516 29.8696C5.68799 31.8626 2.73543 32.6758 2.11773 31.7797C1.50291 30.8878 3.33582 28.498 6.68876 25.5034C6.11744 24.1128 5.80281 22.5926 5.80281 21ZM19.0175 10.5C12.7168 10.5 7.60912 15.5368 7.60912 21.75C7.60912 22.6712 7.72139 23.5664 7.93317 24.4233C7.97479 24.5917 8.02026 24.7586 8.06947 24.924C8.52749 26.4627 9.31004 27.8646 10.3391 29.0526C13.0168 27.7844 16.2954 25.9037 19.7103 23.6147C23.526 21.0569 26.7985 18.4675 29.0206 16.3362C28.298 15.0408 27.3243 13.9009 26.164 12.9803C26.0193 12.8655 25.8717 12.7541 25.7213 12.6462C23.8394 11.2963 21.5228 10.5 19.0175 10.5ZM6.90668 26.001C7.51553 27.3088 8.3558 28.4901 9.37579 29.4939C6.50034 30.7638 4.48046 31.205 4.00473 30.5148C3.53159 29.8284 4.67552 28.1533 6.90668 26.001ZM29.1383 16.2228C28.5617 14.914 27.7554 13.7264 26.7696 12.7095C29.5677 11.4888 31.5276 11.0739 31.9953 11.7524C32.4652 12.4341 31.3398 14.0914 29.1383 16.2228Z" fill="#F0E7FF"/>
</svg>
